<svg xmlns="http://www.w3.org/2000/svg" xmlns:xlink="http://www.w3.org/1999/xlink" width="500" zoomAndPan="magnify" viewBox="0 0 375 374.999991" height="500" preserveAspectRatio="xMidYMid meet" version="1.0"><defs><g/><clipPath id="330dcf81ab"><path d="M 50.140625 150.253906 L 124.390625 150.253906 L 124.390625 224.503906 L 50.140625 224.503906 Z M 50.140625 150.253906 " clip-rule="nonzero"/></clipPath><clipPath id="07eb12f1e0"><rect x="0" width="36" y="0" height="48"/></clipPath></defs><rect x="-37.5" width="450" fill="#ffffff" y="-37.499999" height="449.999989" fill-opacity="1"/><rect x="-37.5" width="450" fill="#000001" y="-37.499999" height="449.999989" fill-opacity="1"/><g clip-path="url(#330dcf81ab)"><path fill="#f5a623" d="M 124.625 213.535156 C 124.625 219.722656 119.609375 224.738281 113.425781 224.738281 L 61.339844 224.738281 C 55.15625 224.738281 50.140625 219.722656 50.140625 213.535156 L 50.140625 161.453125 C 50.140625 155.269531 55.15625 150.253906 61.339844 150.253906 L 113.421875 150.253906 C 119.609375 150.253906 124.625 155.269531 124.625 161.453125 Z M 124.625 213.535156 " fill-opacity="1" fill-rule="nonzero"/></g><path fill="#504a39" d="M 77.492188 212.589844 L 55.75 190.84375 L 64.414062 182.179688 L 77.492188 195.257812 L 110.347656 162.402344 L 119.015625 171.066406 Z M 77.492188 212.589844 " fill-opacity="1" fill-rule="nonzero"/><g transform="matrix(1, 0, 0, 1, 134, 163)"><g clip-path="url(#07eb12f1e0)"><g fill="#ffffff" fill-opacity="1"><g transform="translate(0.661198, 36.305238)"><g><path d="M 0.828125 0 L 10.109375 -25.359375 L 15.328125 -25.359375 L 24.609375 0 L 19.671875 0 L 17.640625 -5.875 L 7.75 -5.875 L 5.6875 0 Z M 9.015625 -9.5 L 16.375 -9.5 L 12.6875 -20.03125 Z M 9.015625 -9.5 "/></g></g></g><g fill="#ffffff" fill-opacity="1"><g transform="translate(26.06164, 36.305238)"><g><path d="M 2.46875 0 L 2.46875 -25.359375 L 7.109375 -25.359375 L 7.109375 0 Z M 2.46875 0 "/></g></g></g></g></g><g fill="#f5a623" fill-opacity="1"><g transform="translate(170.031937, 199.898687)"><g><path d="M 11.125 0.4375 C 9.257812 0.4375 7.613281 0.117188 6.1875 -0.515625 C 4.769531 -1.160156 3.648438 -2.082031 2.828125 -3.28125 C 2.003906 -4.476562 1.582031 -5.929688 1.5625 -7.640625 L 6.453125 -7.640625 C 6.492188 -6.460938 6.921875 -5.46875 7.734375 -4.65625 C 8.546875 -3.84375 9.664062 -3.4375 11.09375 -3.4375 C 12.320312 -3.4375 13.296875 -3.734375 14.015625 -4.328125 C 14.742188 -4.921875 15.109375 -5.710938 15.109375 -6.703125 C 15.109375 -7.742188 14.785156 -8.550781 14.140625 -9.125 C 13.503906 -9.707031 12.65625 -10.179688 11.59375 -10.546875 C 10.53125 -10.910156 9.394531 -11.296875 8.1875 -11.703125 C 6.226562 -12.378906 4.734375 -13.25 3.703125 -14.3125 C 2.679688 -15.375 2.171875 -16.785156 2.171875 -18.546875 C 2.148438 -20.046875 2.503906 -21.332031 3.234375 -22.40625 C 3.972656 -23.476562 4.984375 -24.3125 6.265625 -24.90625 C 7.546875 -25.5 9.019531 -25.796875 10.6875 -25.796875 C 12.375 -25.796875 13.863281 -25.492188 15.15625 -24.890625 C 16.457031 -24.285156 17.472656 -23.4375 18.203125 -22.34375 C 18.941406 -21.257812 19.335938 -19.972656 19.390625 -18.484375 L 14.421875 -18.484375 C 14.398438 -19.367188 14.054688 -20.15625 13.390625 -20.84375 C 12.722656 -21.539062 11.796875 -21.890625 10.609375 -21.890625 C 9.597656 -21.910156 8.75 -21.660156 8.0625 -21.140625 C 7.375 -20.617188 7.03125 -19.863281 7.03125 -18.875 C 7.03125 -18.03125 7.296875 -17.359375 7.828125 -16.859375 C 8.359375 -16.367188 9.082031 -15.953125 10 -15.609375 C 10.914062 -15.273438 11.96875 -14.914062 13.15625 -14.53125 C 14.40625 -14.09375 15.550781 -13.582031 16.59375 -13 C 17.632812 -12.425781 18.46875 -11.660156 19.09375 -10.703125 C 19.71875 -9.753906 20.03125 -8.53125 20.03125 -7.03125 C 20.03125 -5.695312 19.691406 -4.460938 19.015625 -3.328125 C 18.347656 -2.191406 17.347656 -1.28125 16.015625 -0.59375 C 14.679688 0.09375 13.050781 0.4375 11.125 0.4375 Z M 11.125 0.4375 "/></g></g></g><g fill="#f5a623" fill-opacity="1"><g transform="translate(191.656886, 199.898687)"><g><path d="M 14.34375 0.4375 C 11.8125 0.4375 9.597656 -0.117188 7.703125 -1.234375 C 5.804688 -2.347656 4.316406 -3.890625 3.234375 -5.859375 C 2.160156 -7.828125 1.625 -10.101562 1.625 -12.6875 C 1.625 -15.269531 2.160156 -17.546875 3.234375 -19.515625 C 4.316406 -21.484375 5.804688 -23.019531 7.703125 -24.125 C 9.597656 -25.238281 11.8125 -25.796875 14.34375 -25.796875 C 16.863281 -25.796875 19.078125 -25.238281 20.984375 -24.125 C 22.890625 -23.019531 24.375 -21.484375 25.4375 -19.515625 C 26.5 -17.546875 27.03125 -15.269531 27.03125 -12.6875 C 27.03125 -10.101562 26.5 -7.828125 25.4375 -5.859375 C 24.375 -3.890625 22.890625 -2.347656 20.984375 -1.234375 C 19.078125 -0.117188 16.863281 0.4375 14.34375 0.4375 Z M 14.34375 -3.734375 C 16.757812 -3.734375 18.6875 -4.53125 20.125 -6.125 C 21.5625 -7.71875 22.28125 -9.90625 22.28125 -12.6875 C 22.28125 -15.457031 21.5625 -17.640625 20.125 -19.234375 C 18.6875 -20.828125 16.757812 -21.625 14.34375 -21.625 C 11.925781 -21.625 9.992188 -20.828125 8.546875 -19.234375 C 7.097656 -17.640625 6.375 -15.457031 6.375 -12.6875 C 6.375 -9.90625 7.097656 -7.71875 8.546875 -6.125 C 9.992188 -4.53125 11.925781 -3.734375 14.34375 -3.734375 Z M 14.34375 -3.734375 "/></g></g></g><g fill="#f5a623" fill-opacity="1"><g transform="translate(220.309034, 199.898687)"><g><path d="M 2.46875 0 L 2.46875 -25.359375 L 11.78125 -25.359375 C 13.800781 -25.359375 15.46875 -25.015625 16.78125 -24.328125 C 18.101562 -23.640625 19.085938 -22.707031 19.734375 -21.53125 C 20.390625 -20.363281 20.71875 -19.066406 20.71875 -17.640625 C 20.71875 -16.097656 20.3125 -14.6875 19.5 -13.40625 C 18.695312 -12.125 17.4375 -11.191406 15.71875 -10.609375 L 20.984375 0 L 15.65625 0 L 10.9375 -10 L 7.109375 -10 L 7.109375 0 Z M 7.109375 -13.40625 L 11.484375 -13.40625 C 13.035156 -13.40625 14.171875 -13.78125 14.890625 -14.53125 C 15.617188 -15.28125 15.984375 -16.269531 15.984375 -17.5 C 15.984375 -18.707031 15.625 -19.671875 14.90625 -20.390625 C 14.195312 -21.117188 13.046875 -21.484375 11.453125 -21.484375 L 7.109375 -21.484375 Z M 7.109375 -13.40625 "/></g></g></g><g fill="#f5a623" fill-opacity="1"><g transform="translate(242.875774, 199.898687)"><g><path d="M 8.375 0 L 8.375 -21.625 L 0.984375 -21.625 L 0.984375 -25.359375 L 20.4375 -25.359375 L 20.4375 -21.625 L 13.015625 -21.625 L 13.015625 0 Z M 8.375 0 "/></g></g></g><g fill="#f5a623" fill-opacity="1"><g transform="translate(264.283389, 199.898687)"><g><path d="M 2.46875 0 L 2.46875 -25.359375 L 19.015625 -25.359375 L 19.015625 -21.625 L 7.109375 -21.625 L 7.109375 -14.671875 L 17.9375 -14.671875 L 17.9375 -11.046875 L 7.109375 -11.046875 L 7.109375 -3.734375 L 19.015625 -3.734375 L 19.015625 0 Z M 2.46875 0 "/></g></g></g><g fill="#f5a623" fill-opacity="1"><g transform="translate(285.220101, 199.898687)"><g><path d="M 2.46875 0 L 2.46875 -25.359375 L 11.125 -25.359375 C 14.09375 -25.359375 16.535156 -24.832031 18.453125 -23.78125 C 20.378906 -22.738281 21.804688 -21.265625 22.734375 -19.359375 C 23.660156 -17.460938 24.125 -15.238281 24.125 -12.6875 C 24.125 -10.125 23.660156 -7.894531 22.734375 -6 C 21.804688 -4.101562 20.378906 -2.628906 18.453125 -1.578125 C 16.535156 -0.523438 14.09375 0 11.125 0 Z M 7.109375 -3.984375 L 10.90625 -3.984375 C 13.03125 -3.984375 14.707031 -4.328125 15.9375 -5.015625 C 17.175781 -5.703125 18.0625 -6.691406 18.59375 -7.984375 C 19.125 -9.273438 19.390625 -10.84375 19.390625 -12.6875 C 19.390625 -14.5 19.125 -16.054688 18.59375 -17.359375 C 18.0625 -18.660156 17.175781 -19.660156 15.9375 -20.359375 C 14.707031 -21.066406 13.03125 -21.421875 10.90625 -21.421875 L 7.109375 -21.421875 Z M 7.109375 -3.984375 "/></g></g></g><g fill="#f5a623" fill-opacity="1"><g transform="translate(309.887462, 199.898687)"><g><path d="M 4.34375 0.25 C 3.5 0.25 2.804688 -0.015625 2.265625 -0.546875 C 1.722656 -1.078125 1.453125 -1.71875 1.453125 -2.46875 C 1.453125 -3.238281 1.722656 -3.890625 2.265625 -4.421875 C 2.804688 -4.953125 3.5 -5.21875 4.34375 -5.21875 C 5.1875 -5.21875 5.878906 -4.953125 6.421875 -4.421875 C 6.972656 -3.890625 7.25 -3.238281 7.25 -2.46875 C 7.25 -1.71875 6.972656 -1.078125 6.421875 -0.546875 C 5.878906 -0.015625 5.1875 0.25 4.34375 0.25 Z M 4.34375 0.25 "/></g></g></g></svg>